<svg fill="none" height="767" viewBox="0 0 1440 767" width="1440" xmlns="http://www.w3.org/2000/svg">
<path d="m-14.8936 273.223c3.6985-23.916 20.64073-43.806 39.6425-58.829 52.1994-41.35 125.4821-54.514 188.8431-33.939 63.362 20.576 126.106 43.663 143.978 107.78 6.113 21.881 8.527 44.758 16.167 66.152 20.043 56.063 78.466 96.02 138.04 94.405 76.273-2.058 128.14-59.891 191.368-93.277 45.844-24.204 114.163-1.515 139.233 56.119 22.523 51.749-14.13 106.529-25.956 156.132-12.114 50.842 7.818 101.153 49.232 133.123 41.746 32.257 105.13 48.452 156.846 35.797 50.03-12.235 84.13-49.846 122.07-81.861 49.16-41.483 127.43-43.319 187.69-35.443 28.79 3.761 58.22 9.823 86.53 3.407 49.23-11.15 57.18-52.412 57.67-95.776.68-60.09.02-120.202-1.11-180.27-2.24-118.233-6.42-236.444-6.42-354.72131h-1483.8014v281.20131z" fill="#ebf4ff"/>

<path d="m1524.87 305.304c-22.19 75.665-103.56 116.861-179.92 136.795-49.59 12.943-101.32 20.687-152.17 14.16s-100.97-28.518-134.41-67.325c-29.47-34.204-44.4-79.028-74.01-113.122-41.481-47.811-107.788-68.674-171.105-67.435s-124.552 22.102-183.13 46.151c-33.84 13.895-68.61 29.227-105.196 28.143-43.252-1.284-82.562-25.488-115.317-53.741-32.755-28.23-61.457-61.306-96.847-86.174-96.78-68.055-240.0465-60.0459-328.6549 18.341v-169.09706h1511.8599z" fill="#2f80ed" opacity=".3"/>

<path d="m623.282 521.593c2.635 9.624 7.264 18.938 13.088 27.169 23.587 33.363 62.144 64.094 105.174 47.412 32.777-12.699 57.183-48.872 70.869-79.891 10.343-23.43 11.561-49.514-2.103-72.059-23.299-38.452-72.375-43.276-109.958-24.713-25.004 12.345-50.428 31.77-68.212 53.342-11.914 14.491-13.398 32.08-8.858 48.74z" fill="#ebf4ff"/>
</svg>